<svg width="295" height="281" viewBox="0 0 295 281" fill="none" xmlns="http://www.w3.org/2000/svg">
<path d="M163.5 16.5C143.409 -10 50.5512 -7.74785 45.1127 58.3937C42.8644 85.8634 47.0739 107.024 25.3003 127.532C19.9081 132.624 15.0272 138.253 9.90319 143.631C0.432385 153.58 -2.9041 173.989 6.6242 190.644C20.4016 214.794 39.2328 235.904 59.1691 255.298C85.237 280.675 118.819 292.256 143.409 263.956C157.743 247.474 162.507 229.156 184.666 226.686C197.615 225.254 206.555 224.001 216.939 214.361C235.485 197.124 233.206 204.213 247.698 198.835C282.518 185.905 311.843 82.0375 282.5 58.3945C262.933 42.6451 243.076 30.2776 230.11 28.6486C183.204 22.6826 184.666 44.418 163.5 16.5Z" fill="url(#paint0_linear_818_21)"/>
<defs>
<linearGradient id="paint0_linear_818_21" x1="323.551" y1="172.852" x2="58.3049" y2="130.411" gradientUnits="userSpaceOnUse">
<stop stop-color="#3C7540"/>
<stop offset="1" stop-color="#2DA547"/>
</linearGradient>
</defs>
</svg>
